<svg xmlns="http://www.w3.org/2000/svg" xmlns:xlink="http://www.w3.org/1999/xlink" width="961" height="294" viewBox="0 0 961 294">
    <defs>
        <path id="mpex1xubra" d="M0.012 0L1117.92 0 1117.92 411 0.012 411z"/>
    </defs>
    <g fill="none" fill-rule="evenodd" transform="translate(-64 -64)">
        <mask id="peqj7epfeb" fill="#fff">
            <use xlink:href="#mpex1xubra"/>
        </mask>
        <path fill="#FCB17A" d="M302.9 153.304l3.416 8.096s7.018-.982 9.032-3.095c1.798-1.884 1.954-4.829-1.866-6.517-3.195-1.412-10.581 1.516-10.581 1.516" mask="url(#peqj7epfeb)"/>
        <path fill="#4D4666" d="M257.38 127.155c9.932 12.414 17.793 24.931 17.793 24.931l31.098-.776 2.38 13.211s-35.048 14.939-44.65 11.38c-3.797-1.408-13.986-7.945-23.379-22.18-9.32-14.122-8.074-21.336-2.616-28.428 5.166-6.712 14.317-4.459 19.375 1.862" mask="url(#peqj7epfeb)"/>
        <path fill="#31384C" d="M228.701 339.846c-1.161 1.266-2.688 11.423-.997 11.898 4.848 1.36 35.788 2.569 35.788 2.569s2.195-4.792-3.02-4.792c-5.214 0-15.372-7.754-18.757-10.19-2.77-1.99-11.85-.751-13.014.515" mask="url(#peqj7epfeb)"/>
        <path fill="#31384C" d="M195.227 339.78s6.887-1.26 10.887-.286c2.28.555 8.695 8.033 18.94 9.332 8.737 1.11 3.293 5.216 3.293 5.216l-33.76-1.646s-2.196-4.291.64-12.616" mask="url(#peqj7epfeb)"/>
        <path fill="#E29661" d="M228.989 325.576s1.646 10.704 0 14.272c-1.648 3.57 13.45 0 13.45 0s-7.816-5.758-4.667-14.272c3.148-8.514-8.783 0-8.783 0" mask="url(#peqj7epfeb)"/>
        <path fill="#31384C" d="M222.152 193.367l34.741-5.123s-3.11 38.06-5.123 50.138c-2.014 12.077-6.77 34.218-8.234 42.818-1.465 8.602-3.66 46.663-2.38 48.858 1.283 2.196-5.306 2.797-8.417 2.314-3.111-.483-6.77-2.497-6.77-2.497s-4.393-34.767-2.379-49.59c2.012-14.82-1.438-33.12-1.438-33.12v-53.798" mask="url(#peqj7epfeb)"/>
        <path fill="#E29661" d="M196.6 325.576h9.607s-1.576 9.734 1.921 15.096c1.03 1.578-9.197 3.05-10.842 2.745-2.471-.46-2.059-2.745-2.059-2.745s2.47-8.51 1.373-15.096" mask="url(#peqj7epfeb)"/>
        <path fill="#465266" d="M197.057 188.244c.732.732 38.793 2.744 38.884 2.744.092 0-6.13 44.283-12.168 58.557-6.038 14.272-6.588 25.069-9.332 37.695-2.745 12.626-5.308 38.609-5.308 41.172 0 2.562.183 3.842.183 3.842s-13.54.55-15.004-.731c-1.464-1.282-5.124-30.194-2.013-51.786 3.111-21.592.34-21.432.711-43.001.37-21.571 0-44.467 0-44.467l4.047-4.025" mask="url(#peqj7epfeb)"/>
        <path fill="#BCB5FC" d="M234.352 211.628c15.063-.497 19.907-4.23 23.339-5.257 1.987-14.274 6-72.108-1.449-81.475-4.994-6.282-15.304-10.173-19.323-11.242l-11.843-4.37-9.798 3.944c-6.86.006-18.26 6.523-23.349 13.185-4.79 6.27-1.128 70.012-.99 79.958 10.84 3.303 28.303 5.754 43.413 5.257" mask="url(#peqj7epfeb)"/>
        <path fill="#FCB17A" d="M215.539 87.601s1.097-6.588 5.764-8.143c4.667-1.555 8.783-1.28 11.346 1.555 2.56 2.837 5.123 9.79 5.306 12.992.183 3.203 0 8.51-2.563 10.43-2.56 1.922-3.843 1.83-4.299 1.83-.458 0 .594 5.436 4.848 7.137 1.444.578-2.47 5.032-6.77 5.49-4.3.457-13.267-2.562-13.632-5.307-.138-1.026 5.489-4.221 2.196-15.828-2.455-8.653-2.196-10.156-2.196-10.156" mask="url(#peqj7epfeb)"/>
        <path fill="#31384C" d="M226.06 87.91c1.231 2.367 1.646 4.632 1.098 5.089-.549.457-1.953 1.312-2.409.214-.458-1.098-.462-2.894-2.349-3.244-1.229-.227-3.018.531-3.384 1.675-.325 1.016.883 4.333 1.432 5.156.549.823.855 1.414.855 1.414s-1.739 5.124-3.66 5.032c-1.921-.091-5.81-11.602-6.496-16.377-.69-4.803-.709-6.402 1.83-9.241 1.555-1.738 7.96-6.404 15.37-6.404 7.41 0 9.803 3.58 10.202 5.672.534 2.795.04 5.183-2.15 6.588-2.195 1.406-4.994 2.106-6.771 1.372-2.904-1.2-5.008.286-3.568 3.054" mask="url(#peqj7epfeb)"/>
        <path fill="#F0918E" d="M205.337 211.248c-1.803-3.303-4.117-6.26-4.117-6.26l-8.903 5.59s2.945 5.166 5.86 8.52c3.317-1.634 5.92-4.225 7.16-7.85" mask="url(#peqj7epfeb)"/>
        <path fill="#4B4666" d="M195.603 123.775c-9.337 1.13-19.203 21.76-21.493 46.955-2.29 25.196 20.79 45.107 20.79 45.107l10.485-6.519s-3.965-20.616-10.572-35.416c0 0 4.667-8.21 9.513-23.892 4.838-15.659-.703-27.205-8.723-26.235" mask="url(#peqj7epfeb)"/>
        <path fill="#FEE298" d="M348.277 145.451L414.687 145.451 414.687 99.593 348.277 99.593z" mask="url(#peqj7epfeb)"/>
        <path fill="#FDFEFF" d="M363.1 137.361L369.801 137.361 369.801 121.362 363.1 121.362zM373.12 137.361L379.822 137.361 379.822 117.842 373.12 117.842zM383.142 137.361L389.844 137.361 389.844 112.802 383.142 112.802zM393.163 137.361L399.864 137.361 399.864 107.682 393.163 107.682z" mask="url(#peqj7epfeb)"/>
        <path fill="#89D9C1" d="M739.886 355.318h-17.611c5.339-9.081 16.432-29.613 21.01-50.555 1.026-4.69 1.663-9.538 2.012-14.365 10.267-9.765 20.7-15.57 20.7-15.57s2.33 23.646-5.333 46.868c-4.782 14.496-14.3 26.583-20.778 33.622" mask="url(#peqj7epfeb)"/>
        <path fill="#AAF8E0" d="M722.275 355.318h-23.343c-.214-6.558-.47-33.365 8.043-59.891 9.797-30.517 34.652-52.602 34.652-52.602s5.41 23.499 3.67 47.573c-5.807 5.522-11.56 12.31-15.343 20.028-8.466 17.279-12.553 36.88-13.976 44.892h6.297" mask="url(#peqj7epfeb)"/>
        <path fill="#68D1B0" d="M722.275 355.318h-6.297c1.423-8.013 5.51-27.613 13.976-44.892 3.784-7.718 9.536-14.506 15.343-20.028-.35 4.827-.986 9.675-2.012 14.365-4.578 20.942-15.671 41.474-21.01 50.555" mask="url(#peqj7epfeb)"/>
        <path fill="#D3DEEF" d="M568.458 321.975c0-2.221 1.8-4.023 4.024-4.023 1.253 0 2.42.598 3.195 1.584 2.964 3.769 7.565 6.192 12.731 6.192 9.285 0 16.742-7.817 16.148-17.23-.52-8.248-7.373-14.867-15.634-15.122-5.388-.169-10.21 2.302-13.267 6.214-.765.978-1.932 1.554-3.173 1.554-2.222 0-4.024-1.802-4.024-4.026v-32.666h32.664c2.224 0 4.026-1.802 4.026-4.024 0-1.241-.575-2.408-1.553-3.173-3.913-3.058-6.381-7.879-6.215-13.267.255-8.261 6.874-15.114 15.123-15.634 9.412-.594 17.231 6.863 17.231 16.148 0 5.166-2.423 9.767-6.194 12.73-.986.775-1.584 1.943-1.584 3.196 0 2.224 1.802 4.024 4.024 4.024h32.668v90.192h-90.19v-32.669" mask="url(#peqj7epfeb)"/>
        <path fill="#B5CFFC" d="M453.329 264.452c2.221 0 4.024 1.802 4.024 4.023 0 1.256-.596 2.423-1.583 3.198-3.77 2.963-6.194 7.565-6.194 12.73 0 9.285 7.82 16.743 17.23 16.149 8.248-.522 14.868-7.373 15.124-15.634.167-5.39-2.303-10.21-6.216-13.27-.978-.762-1.554-1.93-1.554-3.17 0-2.224 1.803-4.026 4.026-4.026h32.666v32.666c0 2.224 1.803 4.026 4.026 4.026 1.24 0 2.407-.576 3.171-1.554 3.058-3.912 7.879-6.383 13.267-6.214 8.261.255 15.115 6.874 15.635 15.123.593 9.412-6.864 17.229-16.149 17.229-5.166 0-9.767-2.423-12.73-6.192-.775-.986-1.942-1.584-3.196-1.584-2.223 0-4.024 1.802-4.024 4.023v32.669h-90.19v-90.192h32.667" mask="url(#peqj7epfeb)"/>
        <path fill="#EDF1F7" d="M729.841 87.04c-28.227 0-51.11 22.882-51.11 51.109 0 28.226 22.883 51.108 51.11 51.108 28.226 0 51.108-22.882 51.108-51.108h-51.108V87.04" mask="url(#peqj7epfeb)"/>
        <path fill="#D3DEEF" d="M734.332 87.04v46.618h46.617c0-25.746-20.872-46.618-46.617-46.618M392.419 219.844L616.089 219.844 616.089 216.525 392.419 216.525zM392.419 211.451L481.967 211.451 481.967 208.132 392.419 208.132z" mask="url(#peqj7epfeb)"/>
        <path fill="#E59965" d="M506.917 109.777l8.668 2.825s4-6.17 3.711-9.184c-.254-2.69-2.455-4.814-6.376-2.966-3.278 1.545-6.003 9.325-6.003 9.325" mask="url(#peqj7epfeb)"/>
        <path fill="#F9B835" d="M450.197 123.5c-3.05-8.18 6.286-18.247 16.068-11.951 8.96 5.767 19.706 16.035 19.706 16.035s21.384-21.912 23.227-21.558c1.157.223 8.839 6.774 8.839 6.774s-8.498 21.181-18.888 31.055c-19.763 18.783-45.175-10.217-48.952-20.356" mask="url(#peqj7epfeb)"/>
        <path fill="#E59965" d="M472.356 326.435c-.121-.255 10.875-4.832 10.875-4.832s.508 18.695 4.005 23.273l-9.284 2.48s-3.331-16.108-5.596-20.921" mask="url(#peqj7epfeb)"/>
        <path fill="#31384C" d="M441.4 184.926c1.697 0 33.61-4.264 33.61-4.264l12.516 151.646s-1.034 1.578-7.071 2.626c-3.066.532-7.64 0-7.64 0L441.4 184.926M477.062 354.066h29.19s1.366-.859.634-2.195c-1.224-2.235-5.19-2.41-11.191-4.767-7.667-3.015-9.476-8.84-10.67-8.146-2.141 1.243.05 6.327-4.254 6.327-3.4 0-3.01-3.46-4.155-2.823-.464.257-.686 7.996.446 11.604" mask="url(#peqj7epfeb)"/>
        <path fill="#E59965" d="M427.165 326.435c.12-.255-10.873-4.832-10.873-4.832s-.51 18.695-4.008 23.273l9.285 2.48s3.333-16.108 5.596-20.921" mask="url(#peqj7epfeb)"/>
        <path fill="#31384C" d="M422.459 354.066h-29.187s-1.37-.859-.638-2.195c1.225-2.235 5.193-2.41 11.194-4.767 7.667-3.015 9.474-8.84 10.67-8.146 2.139 1.243-.052 6.327 4.251 6.327 3.403 0 3.011-3.46 4.156-2.823.466.257.688 7.996-.446 11.604" mask="url(#peqj7epfeb)"/>
        <path fill="#465266" d="M418.474 180.114c2.715-2.265 29.717 3.962 29.717 3.962s.42 5.777.572 16.128c.078 5.286-.136 19.24-.136 19.24-7.975 44.176-20.745 114.115-21.756 114.82-1.26.88-3.773 1.036-7.924.67-3.101-.273-5.284-2.273-5.284-2.273s.043-148.564 4.811-152.547" mask="url(#peqj7epfeb)"/>
        <path fill="#5081FF" d="M415.145 198.53s16.795 5.418 32.646 4.488c20.603-1.208 29.275-6.489 29.275-6.489s4.64-63.544-6.34-78.997c-3.738-5.262-14.421-15.436-26.497-12.795-12.075 2.642-31.698 9.405-33.963 17.288-2.196 7.65 4.908 33.706 5.473 34.247.567.54-.594 42.257-.594 42.257" mask="url(#peqj7epfeb)"/>
        <path fill="#FCB17A" d="M436.478 89.195s-.549-9.74 4.922-12.194c7.394-3.315 15.172 2.606 15.283 14.906.082 9.057-6.605 7.924-6.605 7.924s.103 4.464 5.084 5.708c0 0-1.313 4.938-6.545 5.802-8.138 1.344-11.835-4.263-12.071-4.61-.191-.28 3.343.082 3.532-5.201.19-5.283-3.6-12.335-3.6-12.335" mask="url(#peqj7epfeb)"/>
        <path fill="#C0E1FF" d="M491.879 69.49c1.86-.186 3.518 1.17 3.703 3.03.105 1.05-.296 2.076-1.057 2.807-2.907 2.794-4.55 6.846-4.116 11.169.775 7.767 7.94 13.352 15.766 12.068 6.858-1.125 11.823-7.412 11.344-14.345-.31-4.523-2.78-8.349-6.309-10.58-.882-.558-1.461-1.486-1.566-2.524-.185-1.86 1.171-3.519 3.031-3.705l27.33-2.732 2.733 27.33c.187 1.86 1.845 3.217 3.705 3.03 1.038-.103 1.965-.682 2.524-1.564 2.231-3.53 6.058-5.999 10.579-6.31 6.933-.477 13.22 4.487 14.346 11.345 1.284 7.825-4.301 14.99-12.07 15.766-4.321.432-8.374-1.21-11.168-4.116-.73-.76-1.757-1.163-2.807-1.058-1.858.186-3.214 1.844-3.03 3.703l2.734 27.331-75.458 7.545-7.546-75.457 27.332-2.733" mask="url(#peqj7epfeb)"/>
        <path fill="#E59965" d="M465.336 147.013s4.41.603 7.55-1.692c3.14-2.296 7.08-3.606 7.08-3.606 1.134 1.345-3.04 4.001-3.04 4.001s-1.298 1.14 4.02-1.013c2.3-.93 5.018-.762 5.458 1.717.44 2.478-2.236 6.111-6.368 7.506-4.143 1.397-5.674.811-10.834 1.42-3.354.395-3.866-8.333-3.866-8.333" mask="url(#peqj7epfeb)"/>
        <path fill="#3C67D6" d="M410.042 121.987c2.01-3.676 11.753-15.305 17.205 4.918 5.374 19.929 2.72 23.199 2.72 23.199s37.515-7.589 38.725-6.328c.762.791 2.554 13.688 2.554 13.688s-15.188 9.858-40.023 15.199c-24.836 5.34-25.66-42.474-21.18-50.676" mask="url(#peqj7epfeb)"/>
        <path fill="#31384C" d="M456.364 87.998c-2.852-1.522-3.637 9.075-8.456.702-.354-.85-1.344-3.68-.707-4.317.637-.636 5.37-3.407 6.864-4.74 2.618-2.335.694-8.63-2.407-9.623-5.086-1.627-15.963 3.61-18.182 6.071-1.766 1.958-3.393 4.942-1.275 11.76 2.508 8.068 4.554 11.939 7.824 12.101 1.658.083 3.426-6.137 3.426-6.137s-2.619-1.648-2.619-4.408c0-2.76 1.279-3.15 2.619-3.042 1.549.124 1.742 2.148 2.194 2.98.666 1.645 2.374 5.839 2.853 6.798.6 1.2 1.031 3.237 1.58 3.688.55.452 2.996 2.182 5.456 2.182 2.46 0 5.684-2.81 6.284-4.34.288-.737-3.121-8.43-5.454-9.675" mask="url(#peqj7epfeb)"/>
        <path fill="#FCB17A" d="M596.104 138.149c1.178-.223 2.357-.442 3.537-.661 1.973-.367 3.82-.973 5.715-1.429-.993-2.408-2.292-5.002-3.695-7.195-3.843-6.003-8.931-2.632-7.579 2.145l2.022 7.14" mask="url(#peqj7epfeb)"/>
        <path fill="#465266" d="M637.69 123.1c-2.21-1.99-12.306 5.537-23.785 24.908-2.82-5.46-5.676-10.698-8.465-15.366-2.803 1.018-9.087 4.563-11.305 4.907 2.629 9.17 5.193 24.305 12.963 32.699 2.244 2.422 6.235 3.575 9.712 3.49 10.454-.254 34.78-38.113 20.88-50.637" mask="url(#peqj7epfeb)"/>
        <path fill="#E59965" d="M639.006 316.643l12.822-16.835s-6.823 39.327-4.137 47.528l-9.455-.787-2.15-2.74s5.068-2.52 2.92-27.166" mask="url(#peqj7epfeb)"/>
        <path fill="#31384C" d="M617.828 354.163l28.659.48c.935 0 1.705-.725 1.767-1.66.195-2.943.388-8.814-1.145-9.303-.604-.193-1.882 2.84-4.737 2.117-5.984-1.517-2.848-5.372-5.264-5.748-2.563-.399-2.561 5.318-14.13 7.575-3.118.608-4.205.754-5.884 2.246-.791.703-1.003 1.695-1.005 2.55-.002.962.775 1.743 1.739 1.743" mask="url(#peqj7epfeb)"/>
        <path fill="#E59965" d="M685.14 316.643l-12.822-16.835s6.823 39.327 4.137 47.528l9.455-.787 2.15-2.74s-5.068-2.52-2.92-27.166" mask="url(#peqj7epfeb)"/>
        <path fill="#6B65E7" d="M649.797 333.496s-2.147.456-8.31.456c-3.547 0-7.287-.978-7.287-.978.386-11.247 2.225-56.168 1.987-67.634-.121-5.822-5.906-88.168-3.083-91.935 2.826-3.766 33.386 3.767 33.386 3.595 0-.17-9.385 83.496-9.887 90.995-.557 8.302-5.008 56.753-6.806 65.5" mask="url(#peqj7epfeb)"/>
        <path fill="#5A54D7" d="M689.773 269.963c1.15-8.988 2.443-96.7 2.443-96.7s-24.185-1.313-29.9 1.578c-5.713 2.892 5.744 92.408 6.57 96.748 1.028 5.392 3.253 60.52 3.253 60.52s3.621 1.251 10.144.741c4.247-.33 7.118-1.263 7.118-1.263l.372-61.624" mask="url(#peqj7epfeb)"/>
        <path fill="#FFF" d="M676.26 118.535s-28.01-1.428-28.2-.886c-11.131 31.93-8.026 83.445-8.026 83.445l41.213-.476-4.357-82.084-.63.001" mask="url(#peqj7epfeb)"/>
        <path fill="#FCB17A" d="M660.874 84.944c7.346-.317 12.235 5.426 9.245 12.155-2.826 6.356-1.2 17.634 3.851 19.945 1.56.713-5.326 6.591-15.873 4.642-6.265-1.158-7.237-5.527-7.237-5.527s5.649-.228 6.333-4.765c.148-.987-4.024 2.14-6.592-7.105-2.103-7.568.343-18.917 10.273-19.345" mask="url(#peqj7epfeb)"/>
        <path fill="#31384C" d="M667.037 79.893c.17-.342 4.492-5.256 9.884-3.373s7.581 8.018 6.638 11.7c-.941 3.68-4.27 6.571-5.98 5.848 0 0 1.25 5.916-2.475 12.19-1.853 3.127-5.275 3.492-5.772 3.501-.5.01-1.391-4.437-2.203-6.27-.427-.963 2.392-.124 1.313-4.464-.999-4.023-4.774-2.307-4.59-.175.098 1.158-1.283.531-1.437-.125-.987-4.165-2.838-7.846-6.607-8.36-2.745-.374-5.117 2.138-5.483 4.523-.32 2.084-2.573-.971-2.207-5.836.329-4.35 2.758-8.01 7.723-9.624 7.521-2.444 11.196.465 11.196.465" mask="url(#peqj7epfeb)"/>
        <path fill="#8D95B2" d="M654.546 115.16c-.257-.648-17.99 5.42-20.044 8.85-2.055 3.429-6.66 77.986-4.094 81.196 2.569 3.21 11.985 2.92 11.985 2.92s.082-22.566 1.755-54.478c1.673-31.911 10.585-38.018 10.398-38.489M693.197 123.928s-14.498-7.769-20.347-7.769c0 0 4.386 35.741 5.008 57.108.623 21.366.96 34.16.96 34.16s16.175-.856 18.228-2.14c2.055-1.284-.315-25.987-3.85-81.359" mask="url(#peqj7epfeb)"/>
        <path fill="#0D1011" d="M656.723 101.807c-1.044 0-1.928-1.274-1.928-2.782s.884-2.782 1.928-2.782c1.043 0 1.925 1.274 1.925 2.782s-.882 2.782-1.925 2.782zm-6.819 0c-1.044 0-1.926-1.274-1.926-2.782s.882-2.782 1.926-2.782c1.046 0 1.928 1.274 1.928 2.782s-.882 2.782-1.928 2.782zm15.478-5.716c-.121-.256-.425-.366-.684-.245l-5.086 2.399c-.28-1.727-1.47-3.03-2.89-3.03-1.493 0-2.716 1.44-2.913 3.296h-.991c-.197-1.856-1.42-3.295-2.914-3.295-1.628 0-2.953 1.709-2.953 3.81 0 2.1 1.325 3.808 2.953 3.808 1.494 0 2.717-1.44 2.914-3.295h.99c.198 1.856 1.42 3.295 2.915 3.295 1.537 0 2.79-1.53 2.926-3.47l5.489-2.59c.255-.12.366-.427.244-.683z" mask="url(#peqj7epfeb)"/>
        <path fill="#31384C" d="M706.817 354.644h-29.156c-.937 0-1.708-.726-1.77-1.66-.195-2.944-.388-8.815 1.145-9.304.606-.193 1.883 2.84 4.737 2.117 5.984-1.517 2.848-5.372 5.265-5.748 2.562-.399 2.56 5.318 14.13 7.575 3.117.608 4.702 1.235 6.383 2.727.789.703 1 1.695 1.003 2.548.004.962-.775 1.745-1.737 1.745" mask="url(#peqj7epfeb)"/>
        <path fill="#8CB6FF" d="M589.185 107.226c-1.235 1.401-1.102 3.54.3 4.775.791.698 1.86.97 2.898.779 3.964-.73 8.213.3 11.47 3.174 5.857 5.162 6.213 14.24.605 19.845-4.916 4.913-12.918 5.277-18.271.844-3.492-2.891-5.158-7.129-4.912-11.297.062-1.042-.353-2.054-1.136-2.743-1.402-1.237-3.54-1.102-4.776.3l-18.166 20.601L577.8 161.67c1.402 1.236 1.535 3.375.3 4.777-.69.783-1.701 1.198-2.743 1.137-4.17-.247-8.407 1.42-11.299 4.91-4.432 5.353-4.068 13.356.845 18.27 5.606 5.609 14.683 5.253 19.845-.602 2.873-3.259 3.905-7.507 3.173-11.472-.191-1.038.082-2.106.781-2.897 1.235-1.402 3.372-1.536 4.774-.3l20.603 18.165 50.152-56.88-56.88-50.154-18.166 20.603" mask="url(#peqj7epfeb)"/>
        <path fill="#FCB17A" d="M646.62 151.582c.941-.742 1.885-1.482 2.828-2.222 1.58-1.239 2.938-2.632 4.408-3.913-1.996-1.674-4.349-3.373-6.607-4.667-6.186-3.543-9.135 1.8-5.725 5.408l5.096 5.394" mask="url(#peqj7epfeb)"/>
        <path fill="#465266" d="M685.955 123.22c-2.43 1.716-6.718 8.631-12.628 30.36-7.68-3.622-16.239-8.16-20.558-10.464-2.433 1.728-6.96 7.74-7.441 9.263 4.975 8.14 14.837 19.332 24.559 25.354 2.807 1.738 9.165 2.845 11.678.44 2.528-2.417 13.389-18.401 16.272-32.924 2.565-12.921-4.311-27.371-11.882-22.028" mask="url(#peqj7epfeb)"/>
        <path fill="#DCE4EF" d="M110.9 214.337L117.763 214.337 117.763 185.645 110.9 185.645zM118.98 214.337L125.843 214.337 125.843 190.095 118.98 190.095zM144.688 258.283L151.082 258.283 151.082 229.087 144.688 229.087zM136.027 258.283L142.42 258.283 142.42 229.087 136.027 229.087zM123.943 299.496L118.054 301.984 106.693 275.088 112.582 272.602 123.943 299.496M127.365 258.283L133.758 258.283 133.758 229.087 127.365 229.087zM118.704 258.283L125.096 258.283 125.096 229.087 118.704 229.087zM124.169 301.89L130.562 301.89 130.562 272.694 124.169 272.694zM147.885 301.89L151.695 301.89 151.695 272.694 147.885 272.694zM131.889 301.89L139.223 301.89 139.223 274.332 131.889 274.332zM141.48 346.459h7.333V318.9h-7.334v27.558zm-7.722 0h6.393v-29.196h-6.393v29.196zM140.772 301.937L146.266 301.937 146.266 277.156 140.772 277.156zM110.042 258.283L116.435 258.283 116.435 229.087 110.042 229.087zM147.169 212.943L140.565 214.813 133.962 191.488 140.565 189.619 147.169 212.943" mask="url(#peqj7epfeb)"/>
        <path fill="#DCE4EF" d="M127.148 214.337L134.011 214.337 134.011 185.645 127.148 185.645z" mask="url(#peqj7epfeb)"/>
        <path fill="#7989AA" d="M106.503 214.579h48.152v-33.872h-48.152v33.872zm-.664.666h49.48v-35.202h-49.48v35.202zm.633 43.184h48.151v-33.873h-48.151v33.873zm-.665.663h49.48v-35.2h-49.48v35.2zm.633 43.186h48.151v-33.872H106.44v33.872zm-.665.664h49.48V267.74h-49.48v35.202zm.633 43.184h48.151v-33.873h-48.151v33.873zm-.664.666h49.48v-35.203h-49.48v35.203zm-7.48 6.598h64.567V170.966H98.263V353.39zm-.665.664h65.896V170.302H97.6v183.752z" mask="url(#peqj7epfeb)"/>
        <path fill="#DCE4EF" d="M982.257 176.575c.871-3.87 1.926-7.906 4.638-10.8 2.713-2.895 7.618-4.126 10.682-1.605 3.027 2.49 2.892 7.104 2.281 10.976-2.583 16.381-8.842 31.912-13.976 47.68-2.462 7.564-3.721 15.854-5.144 23.69-1.454 8.016-2.024 15.083-2.363 23.102-1.45-1.57-4.032-31.201.068-72.262.7-7.01 2.269-13.908 3.814-20.78M994.197 231.527c3.216-9.52 7.297-19.352 15.283-25.447 3.092-2.36 7.295-4.082 10.815-2.426 3.136 1.476 4.642 5.261 4.472 8.726-.173 3.463-1.687 6.7-3.173 9.831l-11.465 24.155c-10.057 21.189-20.194 42.604-25.916 65.45-1.586 6.333-2.252 12.82-3.662 19.156-2.66-.588-1.167-15.155-1.08-17.862.213-6.68.661-13.353 1.346-20.001 1.38-13.399 3.71-26.697 6.978-39.762 1.84-7.355 3.975-14.638 6.402-21.82M968.382 248.949c-3.368-18.394-11.194-62.742-23.487-62.92-4.527-.065-7.172 5.093-7.671 9.093-.99 7.908 2.016 15.709 4.967 23.113 5.026 12.618 9.186 20.447 15.61 35.033 3.027 6.872 15.424 35.116 18.342 42.473.95-1.88-6.146-37.968-7.761-46.792M970.435 185.465c-.169-12.93-.444-26.328-6.015-37.996-1.681-3.52-4.692-7.267-8.563-6.796-2.775.337-4.873 2.9-5.506 5.622-.635 2.721-.098 5.57.557 8.285 3.01 12.452 8.216 23.599 12.005 35.835 5.278 17.033 7.898 33.342 7.898 33.342.696-5.75-.031-12.012-.107-17.825-.088-6.822-.179-13.645-.27-20.467" mask="url(#peqj7epfeb)"/>
        <path fill="#DCE4EF" d="M993.592 302.103L962.176 302.103 962.176 305.011 964.058 305.011 964.058 353.567 992.086 353.567 992.086 305.011 993.592 305.011 993.592 302.103" mask="url(#peqj7epfeb)"/>
        <path fill="#7989AA" d="M992.464 353.943L964.058 353.943 964.058 353.191 991.71 353.191 991.71 305.387 977.226 305.387 977.226 304.635 992.464 304.635 992.464 353.943M972.488 241.886c-4.09-49.807-13.812-86.667-13.91-87.033l.727-.194c.098.367 9.84 37.292 13.933 87.163l-.75.064M975.772 295.805c-3.26-19.225-28.22-90.171-28.472-90.885l.709-.25c.252.715 25.235 71.721 28.504 91.01l-.741.125M977.697 285.32c-1.909-67.765 11.42-104.188 11.555-104.548l.705.264c-.135.36-13.413 36.662-11.508 104.262l-.752.022M984.117 302.159l-.746-.109c.072-.491 7.375-49.443 23.413-74.282l.63.407c-15.948 24.703-23.227 73.493-23.297 73.984" mask="url(#peqj7epfeb)"/>
        <path fill="#E59965" d="M761.906 144.735c0 .555-6.663 8.744-6.94 24.845-.278 16.1 7.772 13.324 11.658 10.27 3.888-3.053 9.3-28.175 9.3-28.175l-14.018-6.94" mask="url(#peqj7epfeb)"/>
        <path fill="#31384C" d="M777.228 113.889l21.232-.84 23.4-.307s3.644-28.252-18.7-32.489c-6.728-1.275-12.52.583-15.368 2.497-2.858 1.92-5.945 4.381-8.423 10.448-2.478 6.067-2.308 14.186-2.141 20.69" mask="url(#peqj7epfeb)"/>
        <path fill="#E29661" d="M813.566 311.084s3.833 20.983-.053 28.2c-3.888 7.218-10.218 8.443-10.218 8.443s3.332 2.221 8.33 2.498c4.995.278 12.49-.277 13.044-2.221.557-1.942-.554-6.107 0-13.325.557-7.217 4.72-21.929 4.166-25.26-.555-3.33-15.269 1.665-15.269 1.665M789.954 310.39l11.882-.003c1.46 10.168-5.388 27.161-3.721 34.933 1.664 7.774-16.379 2.222-16.379 2.222l-.682-3.332s6.572-3.146 7.532-11.637c.54-4.786-.88-20.1-1.712-21.767-.832-1.664 3.08-.417 3.08-.417" mask="url(#peqj7epfeb)"/>
        <path fill="#F9B835" d="M773.095 205.6s31.59 6.94 32.144 8.605c.555 1.667.25 53.087.25 53.087s-3.531 67.451-5.196 69.165c-2.602 2.673-14.188 2.108-15.297.394-1.112-1.711-6.406-56.857-7.238-61.02-.832-4.164-1.45-13.327-3.175-30.56-1.25-12.476-1.488-39.67-1.488-39.67" mask="url(#peqj7epfeb)"/>
        <path fill="#FFD150" d="M795.523 208.375l36.086-4.163s2.405 25.882 1.083 43.648c-1.305 17.53-1.915 24.917-1.083 33.246.835 8.326-2.394 55.515-3.617 56.142-2.838 1.455-4.153 1.525-9.077 1.542-5.402.02-7.95-1.306-7.95-1.306s.217-33.88-2.117-48.052c-2.184-13.252-7.971-32.668-9.293-40.348-5.275-30.654-4.032-40.71-4.032-40.71" mask="url(#peqj7epfeb)"/>
        <path fill="#FCB17A" d="M825.261 158.454l16.638-5.06s4.56 26.261 4.806 31.56c.245 5.297.902 36.717.253 40.395-.501 2.848-3.323 5.84-5.273-1.444-1.952-7.283-4.252-19.394-5.436-27.954-.657-4.747-3.653-16.992-6.029-23.37-2.376-6.377-4.959-14.127-4.959-14.127" mask="url(#peqj7epfeb)"/>
        <path fill="#B5CFFC" d="M757.08 152.116l17.858 6.527s-3.006 31.215-3.25 55.085c0 0 7.965 1.535 24.635 1.564 23.6.041 37.664-5.73 37.664-5.73-4.21-19.58-7.263-47.339-6.708-48.171.656-.983 16.613-3.431 16.377-4.858-2.452-14.851-7.164-21.124-12.098-27.261-4.21-5.238-22.038-10.153-25.394-10.549-10.834-1.278-19.695 1.25-19.695 1.25s-4.391.812-10.544 4.468c-9.579 5.69-16.625 20.736-18.845 27.675" mask="url(#peqj7epfeb)"/>
        <path fill="#FCB17A" d="M723.903 173.312c-3.724 1.287-6.001 3.797 3.357 6.57 14.215 4.208 32.215 4.593 37.299 1.513 3.355-2.033 7.453-7.044 2.349-11.29-7.694-6.397-33.768.014-43.005 3.207" mask="url(#peqj7epfeb)"/>
        <path fill="#31384C" d="M781.054 344.21s-16.528 5.84-17.083 7.368c-.555 1.526.964 3.133 4.572 3.41 3.609.278 28.727-1.66 30.944-3.053 1.326-.832-.896-8.962-1.728-8.614-1.181.49.763 3.064-5.76 3.341-6.523.277-8.282.555-10.133-1.527-1.406-1.584-.812-.925-.812-.925" mask="url(#peqj7epfeb)"/>
        <path fill="#FCB17A" d="M789.642 93.362c-.693.228-2.339 4.197-1.726 9.066.55 4.385 3.364 7.016 6.96 7.125 2.304.07 1.86 8.971-4.613 9.612 0 0 1.09 3.609 6.516 5.13 7.084 1.987 14.488-3.527 12.135-5.025-2.762-1.758-2.48-6.395-2.48-6.395-.142-.023-2.71.08-2.71.08-.58-.534-.174-7.09-.642-10.867-.63-5.065-2.086-9.147-2.086-9.147-.791-.025-10.719.211-11.354.42" mask="url(#peqj7epfeb)"/>
        <path fill="#31384C" d="M808.034 345.275s-16.528 5.842-17.083 7.37c-.555 1.524.964 3.133 4.572 3.41 3.609.278 28.73-1.66 30.947-3.053 1.325-.835-.898-8.964-1.73-8.617-1.182.491.764 3.064-5.76 3.342-6.523.277-8.283.554-10.132-1.527-1.408-1.583-.814-.925-.814-.925" mask="url(#peqj7epfeb)"/>
        <path fill="#252525" d="M338.993 282.776L400.513 282.776 400.513 241.58 338.993 241.58z" mask="url(#peqj7epfeb)"/>
        <path fill="#4E4E4E" d="M333.576 282.776L395.096 282.776 395.096 241.58 333.576 241.58z" mask="url(#peqj7epfeb)"/>
        <path fill="#E29661" d="M333.23 333.062l8.798-1.344c.282 11.958 1.753 11.909 1.753 11.909l-.103 2.795-8.58 2.048c.447-2.677-.164-7.854-1.867-15.408" mask="url(#peqj7epfeb)"/>
        <path fill="#31384C" d="M362.794 354.646h-27.89c-.87 0-1.587-.674-1.645-1.542-.183-2.737.54-8.733 1.965-9.187.563-.181 2.394 3.185 5.105 2.798 3.888-.554 1.76-4.59 3.458-4.572 2.41.025 3.268 5.337 13.98 7.643 6.07 1.307 6.64 2.445 6.642 3.238.002.896-.721 1.622-1.615 1.622" mask="url(#peqj7epfeb)"/>
        <path fill="#E29661" d="M302.946 334.355l8.553-.475c-.598 10.152.721 10.23.721 10.23l-.37 2.772-8.738 1.219c.646-2.417.603-7.03-.166-13.746" mask="url(#peqj7epfeb)"/>
        <path fill="#31384C" d="M330.954 354.646h-27.89c-.87 0-1.587-.674-1.645-1.542-.18-2.737.54-8.733 1.967-9.187.563-.181 2.394 3.185 5.104 2.798 3.886-.554 1.76-4.59 3.459-4.572 2.408.025 3.265 5.337 13.98 7.643 6.069 1.307 6.638 2.445 6.642 3.238.002.896-.721 1.622-1.617 1.622M322.604 126.492c-8.8-2.716-15.645-8.11-15.645-8.11 1.094-.528 6.796-3.653 3.913-13.835-2.527-8.922-2.49-15.903 2.072-21.878 3.275-4.29 11.3-6.293 16.405-5.098 5.106 1.195 9.858 5.879 10.963 12.636.399 2.447 1.194 8.256-1.63 15.209-2.825 6.953 6.083 14.505 6.083 14.505s-13.361 9.287-22.16 6.57" mask="url(#peqj7epfeb)"/>
        <path fill="#6B65E7" d="M357.74 196.888l-39.942 3.26s8.501 61.135 7.65 73.486c-1.985 28.841 6.147 63.807 6.58 64.802.327.75 12.168-.103 12.168-.103s-.536-53.235 1.956-61.964c2.46-8.623 6.88-69.377 11.589-79.48" mask="url(#peqj7epfeb)"/>
        <path fill="#5A54D7" d="M333.845 200.656s-13.553 68.46-13.625 71.136c-.08 3.025-5.33 38.486-5.275 67.203 0 .39-12.108 0-12.108 0s-6.407-43.92-3.084-67.43c.32-2.272-3.819-65.1-3.819-65.1l37.911-5.809" mask="url(#peqj7epfeb)"/>
        <path fill="#FFF" d="M349.72 204s-6.356 7.821-40.153.71l2.46-88.462s8.376-2.845 13.836-2.193c5.458.652 11.84 2.111 14.463 3.833 16.876 11.066 9.394 86.111 9.394 86.111" mask="url(#peqj7epfeb)"/>
        <path fill="#D3DEEF" d="M312.027 116.248l-15.626 5.66c-1.178 9.22-2.423 90.37-2.423 90.37s2.482 3.756 12.462 5.542c6.335 1.132 17.744 1.138 17.744 1.138s-.41-40.41-.41-44.104c0-3.693 4.18-39.855-11.747-58.606" mask="url(#peqj7epfeb)"/>
        <path fill="#FCB17A" d="M335.489 88.138s1.831 11.302-.608 16.626c-2.39 5.215-6.303 2.173-6.303 2.173s1.223 7.048 4.862 8.422c.674.254 7.014 6.397 1.94 7-6.044.717-19.921-7.105-19.921-7.105 4.589-.844 3.372-3.573 3.481-6.723.109-3.15 3.84-4.216 4.509-7.116.984-4.288-.345-7.954-.345-7.954s7.93 1.25 12.385-5.323" mask="url(#peqj7epfeb)"/>
        <path fill="#212B23" d="M337.094 150.486L314.475 139.651 297.796 175.512 320.944 185.247 337.094 150.486" mask="url(#peqj7epfeb)"/>
        <path fill="#FCB17A" d="M310.685 162.857s6.574-4.21 9.975-5.247c3.51-1.071 6.461 2.027 3.701 6.252-2.663 4.074-10.13 7.445-10.13 7.445l-3.546-8.45" mask="url(#peqj7epfeb)"/>
        <path fill="#8D95B2" d="M271.66 177.166c.457-3.534 1.676-7.936 3.583-12.932 4.198-10.988 11.522-33.258 16.292-38.465 4.77-5.206 8.988-5.475 10.918-4.844 4.504 1.472-2.908 28.315-8.239 44.591 9.398-2.874 18.77-5.426 18.77-5.426s1.702 1.522 3.315 4.313c1.365 2.361 2.24 6.415 2.24 6.415s-31.903 18.451-40.744 17.638c-6.457-.594-8.526-6.21-6.134-11.29" mask="url(#peqj7epfeb)"/>
        <path fill="#FCB17A" d="M367.498 221.332s2.293 9.383 2.363 12.492c.064 2.826-2.608 6.3-4.971 2.174-2.976-5.195-3.855-9.073-4.073-12.548-.218-3.477 6.68-2.118 6.68-2.118" mask="url(#peqj7epfeb)"/>
        <path fill="#8D95B2" d="M348.93 122.833s3.289 1.916 5.679 7.89c2.205 5.514 5.79 21.562 8.682 43.757 2.437 6.792 6.882 47.84 6.572 52.065l-9.05 2.456s-5.836-18.37-6.921-24.617c-.79-4.541-1.864-25.124-.603-29.658-2.6-11.807-8.661-47.87-4.358-51.893" mask="url(#peqj7epfeb)"/>
        <path fill="#D3DEEF" d="M336.607 116.269s9.722 3.287 13.33 7.61c8.213 9.844 5.23 93.396 5.23 93.396s-1.956 2.787-8.055 1.484c-2.01-.43 6.991-94.029-10.505-102.49" mask="url(#peqj7epfeb)"/>
        <path fill="#252525" d="M373.375 246.281l.01-8.063c.004-3.496-2.834-6.34-6.327-6.344-3.483-.006-6.342 2.834-6.346 6.327l-.008 8.066 2.608.002.008-8.064c.002-2.057 1.675-3.727 3.734-3.725 2.055.004 3.726 1.679 3.723 3.734l-.01 8.063 2.608.004" mask="url(#peqj7epfeb)"/>
        <path fill="#E29661" d="M869.834 326.714c.124-.26-11.099-4.934-11.099-4.934s-.52 19.085-4.09 23.758l9.478 2.532s3.401-16.444 5.711-21.356" mask="url(#peqj7epfeb)"/>
        <path fill="#465266" d="M901.432 182.275c-1.732 0-34.306-4.351-34.306-4.351l-12.774 154.785s1.052 1.61 7.215 2.68c3.132.542 7.8 0 7.8 0l32.065-153.114" mask="url(#peqj7epfeb)"/>
        <path fill="#31384C" d="M865.032 354.917h-29.794s-1.395-.877-.65-2.24c1.252-2.283 5.3-2.46 11.425-4.868 7.827-3.077 9.673-9.022 10.891-8.313 2.185 1.268-.051 6.457 4.34 6.457 3.473 0 3.073-3.53 4.242-2.883.475.265.703 8.164-.454 11.847" mask="url(#peqj7epfeb)"/>
        <path fill="#E29661" d="M915.96 326.714c-.123-.26 11.1-4.934 11.1-4.934s.52 19.085 4.09 23.758l-9.476 2.532s-3.401-16.444-5.713-21.356" mask="url(#peqj7epfeb)"/>
        <path fill="#31384C" d="M920.763 354.917h29.794s1.395-.877.65-2.24c-1.252-2.283-5.3-2.46-11.425-4.868-7.827-3.077-9.67-9.022-10.891-8.313-2.185 1.268.051 6.457-4.34 6.457-3.473 0-3.073-3.53-4.242-2.883-.475.265-.7 8.164.454 11.847M924.832 177.364c-2.77-2.312-30.332 4.045-30.332 4.045s-.43 5.896-.583 16.461c-.08 5.396.137 19.637.137 19.637 8.142 45.091 21.175 116.478 22.207 117.197 1.286.898 3.853 1.058 8.088.684 3.167-.28 5.393-2.32 5.393-2.32s-.044-151.639-4.91-155.704" mask="url(#peqj7epfeb)"/>
        <path fill="#93AFD8" d="M927.473 195.084s-17.143 5.53-33.322 4.582c-21.029-1.233-28.686-6.024-28.686-6.024l4.384-82.815s16.37-13.096 28.696-10.4c12.323 2.697 32.354 9.6 34.663 17.646 2.244 7.81-5.006 34.404-5.585 34.956-.578.551-.15 42.055-.15 42.055" mask="url(#peqj7epfeb)"/>
        <path fill="#8D95B2" d="M861.76 118.627c2.037-2.957 8.195-8.82 9.463-8.834 3.609-.039 6.669 9.927 4.018 24.914-1.513 8.557-1.887 13.718-1.887 13.718l21.146 2.46s2.914 10.054 1.653 11.554c-3.605 4.284-31.793 8.281-38.918 1.926-7.127-6.355-8.261-12.021-5.201-23.884 3.253-12.603 5.682-15.98 9.726-21.854" mask="url(#peqj7epfeb)"/>
        <path fill="#FCBD8A" d="M892.189 144.336s-4.526.386-7.608-2.118c-3.08-2.504-7.028-4.044-7.028-4.044-1.227 1.311 2.887 4.236 2.887 4.236s1.266 1.23-4.044-1.242c-2.294-1.067-5.074-1.038-5.653 1.465-.578 2.504 1.962 6.347 6.1 7.984 4.152 1.64 5.743 1.123 10.97 2.012 3.4.578 4.376-8.293 4.376-8.293" mask="url(#peqj7epfeb)"/>
        <path fill="#8D95B2" d="M931.772 115.346c-2.887-3.153-13.117-13.566-13.586 7.806-.46 21.063 1.735 25.036 1.735 25.036s-31.777-7.707-32.67-6.163c-.562.97-3.656 12.446-3.656 12.446s17.806 17.206 43.724 16.439c25.918-.768 10.897-48.528 4.453-55.564" mask="url(#peqj7epfeb)"/>
        <path fill="#FCBD8A" d="M906.456 84.563s.56-9.942-5.024-12.445c-7.548-3.385-15.487 2.66-15.6 15.214-.082 9.244 6.74 8.088 6.74 8.088s-.104 4.556-5.186 5.826c0 0 1.34 5.04 6.68 5.922 8.305 1.372 12.078-4.351 12.32-4.705.196-.286-3.413.083-3.606-5.31-.191-5.392 3.676-12.59 3.676-12.59" mask="url(#peqj7epfeb)"/>
        <path fill="#31384C" d="M909.52 71.189c1.803 1.998 3.463 5.044 1.301 12.002-2.558 8.236-4.65 12.187-7.987 12.352-1.69.084-3.496-6.264-3.496-6.264s2.671-1.683 2.671-4.499c0-2.817-1.303-3.215-2.671-3.105-1.804.144-1.804 2.816-2.456 3.322-.65.505-2.456-.072-2.094-.94.362-.866 1.373-3.755.723-4.405-.651-.65-5.48-3.478-7.005-4.838-2.674-2.383-.709-8.81 2.456-9.822 5.19-1.661 16.294 3.684 18.559 6.197" mask="url(#peqj7epfeb)"/>
        <path fill="#B5CFFC" d="M64.449 357.262L1012.447 357.262 1012.447 353.943 64.449 353.943z" mask="url(#peqj7epfeb)"/>
    </g>
</svg>
